<?xml version="1.0" standalone="no"?>
<!DOCTYPE svg>
<svg version="1.0" xmlns="http://www.w3.org/2000/svg"
 width="474.000000pt" height="500.000000pt" viewBox="0 0 474.000000 500.000000"
 preserveAspectRatio="xMidYMid meet">

<g transform="translate(0.000000,500.000000) scale(0.100000,-0.100000)"
fill="#fff" stroke="none">
<path d="M804 4808 c-183 -300 -264 -348 -585 -348 l-166 0 -7 -107 c-46 -753
17 -1346 205 -1921 332 -1015 1031 -1822 2037 -2353 l83 -43 92 49 c233 124
420 241 602 378 1108 832 1681 2070 1641 3547 -3 129 -9 283 -12 343 l-7 107
-166 0 c-321 0 -402 48 -585 348 -75 123 -104 162 -119 162 -13 0 -81 -60
-181 -158 -175 -171 -229 -208 -376 -253 -107 -33 -274 -33 -380 0 -151 47
-217 90 -385 253 l-125 120 -125 -120 c-168 -163 -234 -206 -385 -253 -106
-33 -273 -33 -380 0 -147 45 -201 82 -376 253 -100 98 -168 158 -181 158 -15
0 -44 -39 -119 -162z m408 -275 c145 -94 283 -134 456 -134 243 0 420 75 614
259 l88 84 88 -84 c100 -94 173 -146 268 -189 206 -94 482 -94 687 0 96 43
176 101 286 207 l99 94 62 -100 c110 -178 208 -263 365 -316 64 -21 105 -27
206 -32 l126 -5 7 -111 c17 -307 4 -675 -35 -974 -165 -1275 -888 -2335 -2021
-2966 l-136 -76 -114 61 c-426 232 -833 559 -1142 919 -521 606 -827 1331
-922 2185 -19 170 -29 616 -19 816 l7 146 127 5 c269 11 419 103 571 348 l62
100 100 -96 c56 -53 132 -116 170 -141z"/>
<path d="M2344 4509 c-35 -39 -152 -119 -230 -158 -137 -67 -258 -99 -401
-103 -77 -3 -81 -4 -65 -20 76 -75 2358 -2198 2363 -2198 3 0 23 37 44 83 178
388 289 800 341 1262 16 144 32 723 20 768 -5 22 -13 25 -68 31 -225 25 -431
145 -557 324 l-23 32 -51 -43 c-244 -205 -568 -287 -868 -218 -150 34 -316
119 -432 221 -25 22 -47 40 -49 40 -3 0 -13 -9 -24 -21z"/>
<path d="M785 4130 c-11 -12 -19 -36 -19 -57 0 -68 80 -98 129 -48 30 30 32
64 4 99 -26 33 -86 37 -114 6z"/>
<path d="M1223 4070 c-167 -35 -273 -200 -273 -425 0 -232 105 -389 283 -425
150 -30 283 33 351 168 38 76 51 128 36 147 -14 17 -75 20 -114 5 -24 -9 -26
-14 -26 -67 0 -109 -55 -164 -131 -133 -39 17 -65 70 -79 166 -13 92 -13 286
1 321 18 48 49 73 90 73 47 0 80 -36 98 -106 7 -27 18 -60 24 -74 16 -32 88
-57 126 -43 22 8 26 15 25 48 -1 62 -34 154 -79 220 -33 49 -53 66 -106 93
-70 36 -153 47 -226 32z"/>
<path d="M324 3608 c3 -24 8 -83 12 -133 13 -202 53 -445 109 -673 203 -829
661 -1529 1350 -2067 165 -128 537 -365 575 -365 38 0 379 215 560 353 113 86
280 227 280 237 0 3 -46 48 -102 101 -57 52 -705 656 -1440 1342 -736 686
-1340 1247 -1343 1247 -4 0 -4 -19 -1 -42z"/>
<path d="M2021 3396 c-9 -11 -9 -27 4 -74 8 -33 15 -73 14 -88 0 -16 -42 -119
-92 -228 l-92 -199 -40 -11 c-64 -18 -58 -40 34 -123 68 -63 81 -70 92 -57 9
11 10 23 1 50 -10 33 0 94 15 94 7 0 61 -49 186 -167 84 -78 88 -84 85 -120
-3 -33 -7 -38 -31 -41 -15 -2 -31 -12 -37 -22 -8 -15 18 -43 172 -186 99 -93
188 -169 197 -169 22 0 19 35 -9 110 -16 45 -33 155 -66 434 -40 336 -43 376
-29 391 33 36 20 55 -175 237 -105 98 -197 179 -204 181 -7 2 -18 -4 -25 -12z
m159 -502 c15 -131 27 -240 26 -241 -1 -1 -49 42 -106 96 l-105 98 69 152 c40
88 73 148 78 143 5 -5 22 -117 38 -248z"/>
<path d="M1692 3293 c-51 -44 -17 -133 50 -133 36 0 78 40 78 73 0 13 -9 36
-21 51 -25 31 -76 35 -107 9z"/>
<path d="M2920 2555 c-11 -13 -8 -28 19 -95 l31 -79 0 -310 0 -310 -30 -16
c-62 -32 -49 -49 247 -317 95 -87 115 -63 64 74 -20 54 -21 76 -21 370 l0 313
30 17 c17 10 30 25 30 36 0 20 -317 324 -344 330 -7 2 -19 -4 -26 -13z"/>
<path d="M2661 2374 c-28 -35 -26 -69 4 -99 50 -51 129 -20 129 50 0 71 -90
104 -133 49z"/>
<path d="M3432 1670 c-29 -27 -29 -83 -2 -110 28 -28 81 -26 108 3 65 69 -37
171 -106 107z"/>
</g>
</svg>
